<?xml version="1.0" standalone="no"?><!DOCTYPE svg PUBLIC "-//W3C//DTD SVG 1.1//EN" "http://www.w3.org/Graphics/SVG/1.1/DTD/svg11.dtd"><svg t="1633351312385" class="icon" viewBox="0 0 1302 1024" version="1.1" xmlns="http://www.w3.org/2000/svg" p-id="2396" xmlns:xlink="http://www.w3.org/1999/xlink" width="254.296875" height="200"><defs><style type="text/css"></style></defs><path d="M138.666667 896l1024 0 0 128L138.666667 1024 138.666667 896 138.666667 896z" p-id="2397"></path><path d="M522.666667 580.266667l640 0 0 128L522.666667 708.266667 522.666667 580.266667 522.666667 580.266667z" p-id="2398"></path><path d="M522.666667 324.266667l640 0 0 128L522.666667 452.266667 522.666667 324.266667 522.666667 324.266667z" p-id="2399"></path><path d="M138.666667 0l1024 0 0 128L138.666667 128 138.666667 0 138.666667 0z" p-id="2400"></path><path d="M138.666667 290.133333l256 256L138.666667 733.866667 138.666667 290.133333 138.666667 290.133333z" p-id="2401"></path></svg>